<svg width="73" height="6" viewBox="0 0 73 6" fill="none" xmlns="http://www.w3.org/2000/svg">
<path d="M2.31044 4.72747C1.88 4.72747 1.48754 4.62566 1.13306 4.42206C0.782806 4.21421 0.506397 3.93425 0.303838 3.58219C0.101279 3.23012 0 2.84411 0 2.42418C0 2 0.0970595 1.61188 0.291178 1.25981C0.489517 0.903499 0.763816 0.623542 1.11407 0.419936C1.46433 0.212089 1.86312 0.108165 2.31044 0.108165C2.66914 0.108165 2.97719 0.165429 3.23461 0.279957C3.49625 0.390244 3.72835 0.566278 3.93091 0.808059L3.30424 1.35525C3.03838 1.07529 2.70712 0.935313 2.31044 0.935313C2.03192 0.935313 1.78716 1.00318 1.57616 1.13892C1.36516 1.27041 1.20269 1.45069 1.08875 1.67975C0.974815 1.90456 0.917845 2.1527 0.917845 2.42418C0.917845 2.69565 0.974815 2.9438 1.08875 3.16861C1.20691 3.39343 1.37149 3.57158 1.58249 3.70308C1.79771 3.83457 2.04669 3.90032 2.32943 3.90032C2.74299 3.90032 3.08058 3.7561 3.34222 3.46766L3.98788 4.02121C3.81064 4.23754 3.57854 4.40933 3.29158 4.53659C3.00884 4.66384 2.6818 4.72747 2.31044 4.72747Z" fill="black"/>
<path d="M5.72773 3.95122C5.90919 3.95122 6.06955 3.9088 6.20881 3.82397C6.35229 3.73913 6.46201 3.6246 6.53796 3.48038C6.61392 3.33616 6.6519 3.17709 6.6519 3.00318C6.6519 2.82927 6.61392 2.6702 6.53796 2.52598C6.46201 2.37752 6.35229 2.26087 6.20881 2.17603C6.06955 2.08696 5.90919 2.04242 5.72773 2.04242C5.55049 2.04242 5.39224 2.08696 5.25298 2.17603C5.11372 2.26087 5.00611 2.3754 4.93015 2.51962C4.85419 2.66384 4.81621 2.82291 4.81621 2.99682C4.81621 3.16649 4.85419 3.32556 4.93015 3.47402C5.01033 3.61824 5.11794 3.73489 5.25298 3.82397C5.39224 3.9088 5.55049 3.95122 5.72773 3.95122ZM3.96167 3.00318C3.96167 2.68929 4.03341 2.40085 4.17689 2.13786C4.32459 1.87063 4.52293 1.65854 4.7719 1.50159C5.02088 1.34464 5.29307 1.26617 5.58847 1.26617C5.85855 1.26617 6.07588 1.31707 6.24046 1.41888C6.40926 1.52068 6.54007 1.66702 6.63291 1.8579V1.33616H7.48113V4.64475H6.6519V4.10392C6.55484 4.30329 6.42192 4.45811 6.25312 4.5684C6.08854 4.67444 5.86699 4.72747 5.58847 4.72747C5.29307 4.72747 5.02088 4.65111 4.7719 4.49841C4.52293 4.34146 4.32459 4.1315 4.17689 3.86851C4.03341 3.60551 3.96167 3.31707 3.96167 3.00318Z" fill="black"/>
<path d="M7.98886 0H8.84341V4.64475H7.98886V0Z" fill="black"/>
<path d="M9.80457 4.69565C9.65687 4.69565 9.53239 4.64687 9.43111 4.54931C9.33405 4.44751 9.28552 4.32662 9.28552 4.18664C9.28552 4.04666 9.33405 3.92789 9.43111 3.83033C9.53239 3.73277 9.65687 3.68399 9.80457 3.68399C9.95227 3.68399 10.0747 3.73277 10.1717 3.83033C10.2688 3.92789 10.3173 4.04666 10.3173 4.18664C10.3173 4.32662 10.2688 4.44751 10.1717 4.54931C10.0747 4.64687 9.95227 4.69565 9.80457 4.69565Z" fill="black"/>
<path d="M12.2741 4.72747C11.9238 4.72747 11.6136 4.65111 11.3435 4.49841C11.0777 4.34146 10.8709 4.1315 10.7232 3.86851C10.5797 3.60551 10.508 3.31283 10.508 2.99046C10.508 2.66808 10.5797 2.3754 10.7232 2.11241C10.8709 1.84942 11.0777 1.64157 11.3435 1.48887C11.6136 1.33192 11.9238 1.25345 12.2741 1.25345C12.8395 1.25345 13.2826 1.45493 13.6033 1.8579L12.9324 2.41145C12.8522 2.29268 12.7551 2.20148 12.6412 2.13786C12.5315 2.06999 12.4049 2.03606 12.2614 2.03606C12.0842 2.03606 11.928 2.08059 11.793 2.16967C11.6579 2.25451 11.5524 2.36904 11.4765 2.51326C11.4005 2.65748 11.3625 2.81654 11.3625 2.99046C11.3625 3.16013 11.4005 3.31919 11.4765 3.46766C11.5567 3.61188 11.6664 3.72853 11.8056 3.8176C11.9449 3.90244 12.1031 3.94486 12.2804 3.94486C12.5589 3.94486 12.7994 3.80912 13.002 3.53765L13.6413 4.10392C13.4641 4.30753 13.2657 4.46235 13.0463 4.5684C12.8269 4.67444 12.5695 4.72747 12.2741 4.72747Z" fill="black"/>
<path d="M15.3707 4.72747C15.0374 4.72747 14.7377 4.65111 14.4719 4.49841C14.206 4.34146 13.9971 4.1315 13.8452 3.86851C13.6933 3.60127 13.6173 3.31071 13.6173 2.99682C13.6173 2.68293 13.6933 2.39236 13.8452 2.12513C13.9971 1.8579 14.206 1.64793 14.4719 1.49523C14.7377 1.33828 15.0374 1.25981 15.3707 1.25981C15.7041 1.25981 16.0037 1.33828 16.2696 1.49523C16.5355 1.64793 16.7443 1.8579 16.8963 2.12513C17.0482 2.39236 17.1241 2.68293 17.1241 2.99682C17.1241 3.31071 17.0482 3.60127 16.8963 3.86851C16.7443 4.1315 16.5355 4.34146 16.2696 4.49841C16.0037 4.65111 15.7041 4.72747 15.3707 4.72747ZM14.4719 2.99682C14.4719 3.17073 14.5078 3.3298 14.5795 3.47402C14.6555 3.61824 14.761 3.73277 14.896 3.8176C15.0353 3.90244 15.1935 3.94486 15.3707 3.94486C15.548 3.94486 15.7041 3.90244 15.8392 3.8176C15.9784 3.73277 16.0839 3.61824 16.1557 3.47402C16.2316 3.3298 16.2696 3.17073 16.2696 2.99682C16.2696 2.82291 16.2316 2.66384 16.1557 2.51962C16.0797 2.3754 15.9742 2.26087 15.8392 2.17603C15.7041 2.08696 15.548 2.04242 15.3707 2.04242C15.1935 2.04242 15.0374 2.08696 14.9023 2.17603C14.7673 2.26087 14.6618 2.3754 14.5858 2.51962C14.5099 2.66384 14.4719 2.82291 14.4719 2.99682Z" fill="black"/>
<path d="M17.5024 1.33616H18.3442V1.81972C18.5173 1.44645 18.8528 1.25981 19.3507 1.25981C19.5828 1.25981 19.7917 1.31495 19.9774 1.42524C20.1673 1.53128 20.315 1.68399 20.4205 1.88335C20.5344 1.6755 20.6779 1.52068 20.8509 1.41888C21.0281 1.31283 21.256 1.25981 21.5345 1.25981C21.7709 1.25981 21.984 1.31707 22.1739 1.4316C22.3638 1.54189 22.5136 1.70095 22.6233 1.9088C22.733 2.11241 22.7879 2.34995 22.7879 2.62142V4.64475H21.9333V2.83139C21.9333 2.55567 21.8743 2.34995 21.7561 2.21421C21.6379 2.07847 21.4776 2.0106 21.275 2.0106C21.0598 2.0106 20.8931 2.07211 20.775 2.19512C20.661 2.31813 20.604 2.53022 20.604 2.83139V4.64475H19.7495V2.83139C19.7495 2.55567 19.6862 2.34995 19.5596 2.21421C19.433 2.07847 19.26 2.0106 19.0405 2.0106C18.8464 2.0106 18.684 2.08059 18.5531 2.22057C18.4223 2.35631 18.3569 2.55992 18.3569 2.83139V4.64475H17.5024V1.33616Z" fill="black"/>
<path d="M26.6514 4.79355C26.3515 4.79355 26.0752 4.71613 25.8225 4.56129C25.5697 4.40215 25.3684 4.18925 25.2185 3.92258C25.0728 3.65591 25 3.36344 25 3.04516C25 2.72688 25.0728 2.43441 25.2185 2.16774C25.3684 1.89677 25.5697 1.68172 25.8225 1.52258C26.0752 1.36344 26.3515 1.28387 26.6514 1.28387C26.9255 1.28387 27.1462 1.33548 27.3132 1.43871C27.4803 1.53763 27.6109 1.68172 27.7052 1.87097V0H28.5726V4.70968H27.7309V4.16129C27.6324 4.36344 27.4974 4.52043 27.3261 4.63226C27.159 4.73979 26.9341 4.79355 26.6514 4.79355ZM25.8675 3.03871C25.8675 3.21075 25.906 3.37204 25.9831 3.52258C26.0645 3.66882 26.1737 3.7871 26.3108 3.87742C26.4522 3.96344 26.6128 4.00645 26.7927 4.00645C26.9769 4.00645 27.1397 3.96344 27.2811 3.87742C27.4267 3.7914 27.5381 3.67527 27.6152 3.52903C27.6923 3.3828 27.7309 3.22151 27.7309 3.04516C27.7309 2.86882 27.6923 2.70753 27.6152 2.56129C27.5381 2.41075 27.4267 2.29247 27.2811 2.20645C27.1397 2.11613 26.9769 2.07097 26.7927 2.07097C26.6128 2.07097 26.4522 2.11613 26.3108 2.20645C26.1695 2.29247 26.0602 2.4086 25.9831 2.55484C25.906 2.70108 25.8675 2.86237 25.8675 3.03871Z" fill="#888888"/>
<path d="M30.7201 4.7871C30.3732 4.7871 30.0647 4.70968 29.7949 4.55484C29.5293 4.4 29.3236 4.18925 29.178 3.92258C29.0323 3.65591 28.9595 3.36129 28.9595 3.03871C28.9595 2.71613 29.0345 2.42151 29.1844 2.15484C29.3344 1.88387 29.5421 1.66882 29.8077 1.50968C30.0776 1.35054 30.3817 1.27097 30.7201 1.27097C31.0543 1.27097 31.352 1.35054 31.6133 1.50968C31.8789 1.66882 32.0845 1.88387 32.2302 2.15484C32.3758 2.42151 32.4486 2.71613 32.4486 3.03871C32.4486 3.15054 32.4401 3.25591 32.4229 3.35484H29.8784C29.9298 3.55699 30.0262 3.71613 30.1675 3.83226C30.3089 3.94409 30.4931 4 30.7201 4C30.9172 4 31.0864 3.96129 31.2278 3.88387C31.3734 3.80645 31.4826 3.70108 31.5555 3.56774L32.243 4.07742C32.1059 4.29247 31.9025 4.46452 31.6326 4.59355C31.3627 4.72258 31.0586 4.7871 30.7201 4.7871ZM31.5683 2.67097C31.5126 2.48172 31.4077 2.32688 31.2535 2.20645C31.1035 2.08172 30.9215 2.01936 30.7073 2.01936C30.4974 2.01936 30.3153 2.07957 30.1611 2.2C30.0112 2.31613 29.9105 2.47312 29.8591 2.67097H31.5683Z" fill="#888888"/>
<path d="M32.28 1.35484H33.3274L33.9764 3.27097C34.0406 3.44731 34.0877 3.61936 34.1177 3.7871C34.1477 3.61936 34.1948 3.44731 34.2591 3.27097L34.9081 1.35484H35.9362L34.5482 4.70968H33.6744L32.28 1.35484Z" fill="#888888"/>
<path d="M37.5034 4.7871C37.1564 4.7871 36.848 4.70968 36.5781 4.55484C36.3125 4.4 36.1069 4.18925 35.9613 3.92258C35.8156 3.65591 35.7428 3.36129 35.7428 3.03871C35.7428 2.71613 35.8178 2.42151 35.9677 2.15484C36.1176 1.88387 36.3254 1.66882 36.591 1.50968C36.8609 1.35054 37.165 1.27097 37.5034 1.27097C37.8376 1.27097 38.1353 1.35054 38.3966 1.50968C38.6622 1.66882 38.8678 1.88387 39.0134 2.15484C39.1591 2.42151 39.2319 2.71613 39.2319 3.03871C39.2319 3.15054 39.2233 3.25591 39.2062 3.35484H36.6617C36.7131 3.55699 36.8095 3.71613 36.9508 3.83226C37.0922 3.94409 37.2764 4 37.5034 4C37.7005 4 37.8697 3.96129 38.011 3.88387C38.1567 3.80645 38.2659 3.70108 38.3387 3.56774L39.0263 4.07742C38.8892 4.29247 38.6857 4.46452 38.4159 4.59355C38.146 4.72258 37.8418 4.7871 37.5034 4.7871ZM38.3516 2.67097C38.2959 2.48172 38.191 2.32688 38.0367 2.20645C37.8868 2.08172 37.7048 2.01936 37.4906 2.01936C37.2807 2.01936 37.0986 2.07957 36.9444 2.2C36.7945 2.31613 36.6938 2.47312 36.6424 2.67097H38.3516Z" fill="#888888"/>
<path d="M39.6112 0H40.4787V4.70968H39.6112V0Z" fill="#888888"/>
<path d="M42.6431 4.79355C42.3047 4.79355 42.0005 4.71613 41.7307 4.56129C41.4608 4.40215 41.2487 4.18925 41.0945 3.92258C40.9403 3.65161 40.8632 3.35699 40.8632 3.03871C40.8632 2.72043 40.9403 2.42581 41.0945 2.15484C41.2487 1.88387 41.4608 1.67097 41.7307 1.51613C42.0005 1.35699 42.3047 1.27742 42.6431 1.27742C42.9815 1.27742 43.2857 1.35699 43.5555 1.51613C43.8254 1.67097 44.0375 1.88387 44.1917 2.15484C44.3459 2.42581 44.423 2.72043 44.423 3.03871C44.423 3.35699 44.3459 3.65161 44.1917 3.92258C44.0375 4.18925 43.8254 4.40215 43.5555 4.56129C43.2857 4.71613 42.9815 4.79355 42.6431 4.79355ZM41.7307 3.03871C41.7307 3.21505 41.7671 3.37634 41.8399 3.52258C41.917 3.66882 42.0241 3.78495 42.1612 3.87097C42.3025 3.95699 42.4632 4 42.6431 4C42.823 4 42.9815 3.95699 43.1186 3.87097C43.26 3.78495 43.367 3.66882 43.4399 3.52258C43.517 3.37634 43.5555 3.21505 43.5555 3.03871C43.5555 2.86237 43.517 2.70108 43.4399 2.55484C43.3628 2.4086 43.2557 2.29247 43.1186 2.20645C42.9815 2.11613 42.823 2.07097 42.6431 2.07097C42.4632 2.07097 42.3047 2.11613 42.1676 2.20645C42.0305 2.29247 41.9234 2.4086 41.8463 2.55484C41.7692 2.70108 41.7307 2.86237 41.7307 3.03871Z" fill="#888888"/>
<path d="M46.7282 4.79355C46.4583 4.79355 46.2377 4.74409 46.0663 4.64516C45.8993 4.54194 45.7686 4.39785 45.6744 4.2129V6H44.8069V1.35484H45.6615V1.89677C45.76 1.69892 45.8928 1.54839 46.0599 1.44516C46.227 1.33763 46.4497 1.28387 46.7282 1.28387C47.028 1.28387 47.3043 1.36344 47.5571 1.52258C47.8098 1.68172 48.009 1.89677 48.1547 2.16774C48.3046 2.43441 48.3796 2.72688 48.3796 3.04516C48.3796 3.36344 48.3046 3.65591 48.1547 3.92258C48.009 4.18925 47.8098 4.40215 47.5571 4.56129C47.3043 4.71613 47.028 4.79355 46.7282 4.79355ZM45.6487 3.04516C45.6487 3.22151 45.6872 3.3828 45.7643 3.52903C45.8414 3.67527 45.9507 3.7914 46.092 3.87742C46.2377 3.96344 46.4026 4.00645 46.5868 4.00645C46.7667 4.00645 46.9252 3.96344 47.0623 3.87742C47.2037 3.7871 47.3129 3.66882 47.39 3.52258C47.4714 3.37204 47.5121 3.21075 47.5121 3.03871C47.5121 2.86237 47.4735 2.70108 47.3964 2.55484C47.3193 2.4086 47.2101 2.29247 47.0687 2.20645C46.9274 2.11613 46.7667 2.07097 46.5868 2.07097C46.4026 2.07097 46.2377 2.11613 46.092 2.20645C45.9507 2.29247 45.8414 2.41075 45.7643 2.56129C45.6872 2.70753 45.6487 2.86882 45.6487 3.04516Z" fill="#888888"/>
<path d="M50.3672 4.7871C50.0202 4.7871 49.7118 4.70968 49.4419 4.55484C49.1763 4.4 48.9707 4.18925 48.825 3.92258C48.6794 3.65591 48.6066 3.36129 48.6066 3.03871C48.6066 2.71613 48.6815 2.42151 48.8315 2.15484C48.9814 1.88387 49.1891 1.66882 49.4547 1.50968C49.7246 1.35054 50.0288 1.27097 50.3672 1.27097C50.7013 1.27097 50.999 1.35054 51.2603 1.50968C51.5259 1.66882 51.7315 1.88387 51.8772 2.15484C52.0228 2.42151 52.0957 2.71613 52.0957 3.03871C52.0957 3.15054 52.0871 3.25591 52.07 3.35484H49.5254C49.5768 3.55699 49.6732 3.71613 49.8146 3.83226C49.9559 3.94409 50.1401 4 50.3672 4C50.5642 4 50.7334 3.96129 50.8748 3.88387C51.0204 3.80645 51.1297 3.70108 51.2025 3.56774L51.89 4.07742C51.753 4.29247 51.5495 4.46452 51.2796 4.59355C51.0097 4.72258 50.7056 4.7871 50.3672 4.7871ZM51.2154 2.67097C51.1597 2.48172 51.0547 2.32688 50.9005 2.20645C50.7506 2.08172 50.5685 2.01936 50.3543 2.01936C50.1444 2.01936 49.9624 2.07957 49.8081 2.2C49.6582 2.31613 49.5575 2.47312 49.5061 2.67097H51.2154Z" fill="#888888"/>
<path d="M52.475 1.35484H53.3167V1.99355C53.3767 1.74839 53.4924 1.56344 53.6637 1.43871C53.8393 1.31398 54.0685 1.26022 54.3512 1.27742V2.09677H54.2292C53.9721 2.09677 53.7601 2.17849 53.593 2.34194C53.426 2.50108 53.3424 2.71828 53.3424 2.99355V4.70968H52.475V1.35484Z" fill="#888888"/>
</svg>
