<?xml version="1.0" encoding="UTF-8" standalone="no"?>
<!DOCTYPE svg PUBLIC "-//W3C//DTD SVG 1.1//EN" "http://www.w3.org/Graphics/SVG/1.1/DTD/svg11.dtd">
<svg width="100%" height="100%" viewBox="0 0 827 98" version="1.1" xmlns="http://www.w3.org/2000/svg" xmlns:xlink="http://www.w3.org/1999/xlink" xml:space="preserve" xmlns:serif="http://www.serif.com/" style="fill-rule:evenodd;clip-rule:evenodd;stroke-linejoin:round;stroke-miterlimit:2;">
    <g transform="matrix(1,0,0,1,205.579,-2.75469)">
        <g transform="matrix(1,0,0,1,-188.598,0.250003)">
            <path d="M27.5,88.2C22.6,88.2 17.8,87 13.5,84.6C9.3,82.2 5.9,78.8 3.6,74.6C-1.2,65.8 -1.2,55.2 3.6,46.4C5.9,42.2 9.4,38.7 13.6,36.4C17.9,34 22.7,32.7 27.6,32.8C33.6,32.7 39.4,34.5 44.1,38.1C48.8,41.7 52.1,46.8 54,53.5L42.8,53.5C41.5,50.5 39.4,48 36.6,46.3C34,44.7 31,43.8 27.9,43.8C25.1,43.8 22.3,44.5 19.8,45.8C17.3,47.1 15.1,49.1 13.7,51.6C10.7,56.9 10.6,63.5 13.5,68.9C14.9,71.4 16.9,73.4 19.3,74.9C21.7,76.4 24.5,77.2 27.3,77.1C34.5,77.1 39.7,73.8 42.7,67.2L54.1,67.2C53,71.4 51,75.3 48.3,78.7C45.8,81.7 42.7,84.1 39.1,85.7C35.5,87.4 31.5,88.1 27.5,88.2ZM99.6,82.1C95,86.1 89,88.3 82.8,88.2C77.9,88.2 73.1,87 68.8,84.6C64.7,82.2 61.3,78.8 59,74.6C56.5,70.1 55.3,65.1 55.4,60C55.3,45 67.3,32.8 82.3,32.7L82.6,32.7C89,32.5 95.2,34.8 100.1,38.9L100.1,33.7L111.6,33.7L111.6,87L99.6,87L99.6,82.1ZM83.5,43.7C80.5,43.7 77.6,44.4 75.1,45.9C72.6,47.3 70.5,49.4 69.1,51.9C67.6,54.4 66.9,57.3 66.9,60.3C66.7,64.8 68.4,69.2 71.6,72.5C74.8,75.7 79.2,77.4 83.7,77.3C86.6,77.3 89.5,76.6 92,75.1C94.5,73.7 96.5,71.6 97.9,69.1C100.8,63.8 100.8,57.4 97.9,52.1C96.5,49.6 94.4,47.5 91.9,46.1C89.3,44.5 86.4,43.8 83.5,43.7ZM122,14.8L131.7,14.8L131.7,87L122,87C122,87.1 122,14.8 122,14.8ZM149.8,65.2C150.3,67.5 151.3,69.6 152.8,71.5C154.2,73.3 156.1,74.7 158.2,75.6C160.4,76.6 162.8,77.1 165.2,77.1C168,77.2 170.8,76.6 173.3,75.3C175.7,73.9 177.6,71.9 178.8,69.4L190.7,69.4C188,75.9 184.5,80.6 180.3,83.6C175.9,86.7 170.5,88.3 165.1,88.1C160.3,88.2 155.5,86.9 151.3,84.5C147.2,82.1 143.8,78.7 141.6,74.5C139.2,70.2 138,65.3 138.1,60.4C138,55.5 139.2,50.6 141.6,46.3C143.9,42.1 147.3,38.7 151.4,36.3C160,31.5 170.6,31.5 179.1,36.4C183.2,38.8 186.5,42.4 188.7,46.6C190.9,50.9 192,55.7 192,60.6C192,61.6 191.9,63.1 191.7,65.1L149.8,65.1L149.8,65.2ZM165.2,43.6C161.8,43.5 158.4,44.5 155.6,46.5C152.9,48.5 150.9,51.3 150,54.5L180.2,54.5C179.3,51.3 177.3,48.5 174.6,46.5C171.9,44.5 168.6,43.5 165.2,43.6ZM234.8,57.3C234.8,52.6 233.8,49.1 231.8,46.8C229.8,44.5 226.9,43.3 223.1,43.3C220.8,43.3 218.5,44 216.6,45.3C214.6,46.6 212.9,48.5 211.8,50.7C210.6,53 210,55.5 210,58.1L210,87L198.8,87L198.8,33.8L209.3,33.8L209.3,38.6C213.2,34.7 218.6,32.6 224.2,32.8C228.1,32.8 231.9,33.8 235.2,35.8C238.5,37.8 241.2,40.6 243.1,44C245,47.5 246,51.5 246,55.5L246,87.1L234.8,87.1L234.8,57.3ZM296.7,82.2C294.3,84.1 291.7,85.6 288.8,86.6C285.8,87.6 282.6,88.1 279.4,88.1C274.6,88.2 269.8,86.9 265.6,84.4C261.5,82 258.1,78.5 255.8,74.3C253.4,70 252.2,65.2 252.2,60.2C252.1,55.1 253.3,50.1 255.7,45.5C258,41.3 261.4,37.8 265.5,35.4C269.8,32.9 274.7,31.6 279.6,31.7C282.7,31.7 285.7,32.2 288.6,33.1C291.4,34 294,35.4 296.4,37.2L296.4,14.9L307.7,14.9L307.7,87.1L296.6,87.1L296.7,82.2ZM280.4,43.1C277.4,43.1 274.5,43.8 272,45.3C269.5,46.7 267.4,48.8 266,51.3C264.5,53.9 263.8,56.8 263.8,59.8C263.6,64.4 265.3,68.9 268.5,72.2C271.7,75.4 276,77.2 280.6,77C283.5,77 286.4,76.3 288.9,74.7C291.4,73.2 293.4,71.1 294.8,68.6C297.7,63.2 297.7,56.8 294.8,51.4C291.8,46.2 286.3,43 280.4,43.1ZM335.8,88.2C332,88.3 328.3,87.4 325,85.8C321.9,84.2 319.3,81.8 317.5,78.8C315.6,75.5 314.6,71.7 314.5,67.9L325.5,67.9C325.5,70.6 326.6,73.2 328.6,75C330.7,76.7 333.4,77.6 336.1,77.5C337.9,77.5 339.7,77.3 341.4,76.7C342.7,76.3 343.8,75.5 344.7,74.5C345.4,73.7 345.8,72.6 345.8,71.5C345.9,70.3 345.4,69.1 344.6,68.3C344.1,67.8 343.5,67.5 342.9,67.1C342.2,66.8 341.5,66.5 340.7,66.3C338.9,65.9 336.8,65.4 334.6,65C332.8,64.8 331.1,64.4 329.5,64C327.9,63.6 326,63 324.5,62.4C323.7,62.2 322.9,61.8 322.1,61.4L321.1,60.7C320.7,60.3 320.3,60 319.9,59.7C319.2,59.2 318.6,58.6 318.1,57.9C317.5,57.1 317,56.2 316.6,55.3C315.7,53.3 315.3,51.1 315.4,48.9C315.4,45.9 316.3,42.9 318.1,40.4C319.9,37.9 322.4,35.9 325.3,34.7C328.6,33.3 332.1,32.6 335.6,32.7C339.2,32.6 342.7,33.4 345.9,35.1C348.9,36.6 351.3,38.9 353,41.8C354.8,45 355.7,48.6 355.7,52.2L345,52.2C344.9,49.2 344,47 342.3,45.5C340.6,44 338.3,43.2 335.3,43.2C332.3,43.2 330.1,43.7 328.5,44.7C327.1,45.5 326.2,46.9 326.2,48.5C326.1,49.5 326.5,50.5 327.2,51.1C327.8,51.6 328.4,52 329,52.3C329.6,52.6 330.3,52.8 331,53C331.8,53.2 332.7,53.4 333.7,53.6L336.8,54.1C340.2,54.6 343.5,55.3 346.8,56.3C349.4,57.1 351.8,58.6 353.5,60.8C355.3,63.2 356.4,66.1 356.5,69.2L356.6,71C356.7,74.2 355.7,77.4 353.8,80.1C351.9,82.8 349.3,84.9 346.3,86.1C343.2,87.6 339.5,88.3 335.8,88.2ZM412.4,74.6C410,78.8 406.5,82.3 402.2,84.6C397.7,87 392.6,88.3 387.4,88.2C382.5,88.3 377.7,87 373.4,84.6C369.2,82.2 365.7,78.8 363.3,74.7C360.8,70.5 359.5,65.7 359.6,60.9C359.5,55.8 360.7,50.8 363.2,46.3C365.6,42.1 369.2,38.6 373.4,36.3C377.8,33.9 382.7,32.7 387.7,32.7C392.7,32.7 397.6,33.9 402,36.3C406.2,38.6 409.8,42 412.2,46.2C414.6,50.5 415.9,55.4 415.8,60.4C416.1,65.4 414.8,70.3 412.4,74.6ZM387.8,43.3C384.8,43.3 381.8,44.1 379.2,45.6C376.6,47.1 374.4,49.2 372.9,51.8C371.4,54.4 370.6,57.3 370.6,60.3C370.6,64.9 372.4,69.3 375.8,72.5C379,75.9 383.4,77.8 388.1,77.8C391.1,77.8 394.1,77 396.6,75.4C399.2,73.9 401.3,71.7 402.8,69.1C404.3,66.5 405.1,63.5 405.1,60.5C405.1,57.5 404.3,54.5 402.8,51.9C401.3,49.3 399.1,47.2 396.5,45.7C393.9,44.1 390.9,43.3 387.8,43.3Z" style="fill-rule:nonzero;"/>
        </g>
        <g transform="matrix(0.887446,0,0,0.887446,-168.096,37.0714)">
            <g transform="matrix(64,0,0,64,487.006,49.5648)">
                <path d="M0.092,-0L0.092,-0.7L0.377,-0.7C0.445,-0.7 0.505,-0.685 0.556,-0.656C0.607,-0.626 0.646,-0.585 0.675,-0.532C0.703,-0.479 0.717,-0.419 0.717,-0.35C0.717,-0.281 0.703,-0.22 0.675,-0.168C0.646,-0.115 0.607,-0.074 0.556,-0.045C0.505,-0.015 0.446,-0 0.377,-0L0.092,-0ZM0.372,-0.569L0.236,-0.569L0.236,-0.131L0.372,-0.131C0.434,-0.131 0.483,-0.151 0.518,-0.19C0.553,-0.229 0.571,-0.283 0.571,-0.35C0.571,-0.417 0.553,-0.47 0.518,-0.51C0.482,-0.549 0.433,-0.569 0.372,-0.569Z" style="fill-rule:nonzero;"/>
            </g>
            <g transform="matrix(64,0,0,64,535.774,49.5648)">
                <path d="M0.092,-0L0.092,-0.7L0.56,-0.7L0.56,-0.572L0.233,-0.572L0.233,-0.419L0.511,-0.419L0.511,-0.295L0.233,-0.295L0.233,-0.128L0.566,-0.128L0.566,-0L0.092,-0Z" style="fill-rule:nonzero;"/>
            </g>
            <g transform="matrix(64,0,0,64,576.222,49.5648)">
                <path d="M0.292,-0L0.013,-0.7L0.167,-0.7L0.315,-0.315C0.326,-0.286 0.335,-0.262 0.343,-0.242C0.349,-0.222 0.356,-0.203 0.362,-0.185C0.367,-0.204 0.374,-0.223 0.381,-0.243C0.388,-0.263 0.396,-0.287 0.406,-0.315L0.547,-0.7L0.701,-0.7L0.419,-0L0.292,-0Z" style="fill-rule:nonzero;"/>
            </g>
            <g transform="matrix(64,0,0,64,621.854,49.5648)">
                <path d="M0.092,-0L0.092,-0.7L0.56,-0.7L0.56,-0.572L0.233,-0.572L0.233,-0.419L0.511,-0.419L0.511,-0.295L0.233,-0.295L0.233,-0.128L0.566,-0.128L0.566,-0L0.092,-0Z" style="fill-rule:nonzero;"/>
            </g>
            <g transform="matrix(64,0,0,64,662.302,49.5648)">
                <path d="M0.092,-0L0.092,-0.7L0.236,-0.7L0.236,-0.131L0.555,-0.131L0.555,-0L0.092,-0Z" style="fill-rule:nonzero;"/>
            </g>
            <g transform="matrix(64,0,0,64,699.742,49.5648)">
                <path d="M0.4,0.01C0.349,0.01 0.301,0.001 0.258,-0.017C0.215,-0.035 0.177,-0.06 0.146,-0.093C0.114,-0.125 0.089,-0.163 0.072,-0.207C0.054,-0.251 0.045,-0.299 0.045,-0.352C0.045,-0.404 0.054,-0.452 0.072,-0.496C0.089,-0.54 0.114,-0.578 0.146,-0.611C0.177,-0.643 0.215,-0.668 0.258,-0.686C0.301,-0.704 0.349,-0.713 0.4,-0.713C0.451,-0.713 0.498,-0.704 0.541,-0.686C0.584,-0.668 0.622,-0.643 0.654,-0.61C0.685,-0.577 0.71,-0.539 0.728,-0.495C0.745,-0.451 0.754,-0.403 0.754,-0.352C0.754,-0.3 0.745,-0.252 0.728,-0.208C0.71,-0.164 0.685,-0.126 0.654,-0.093C0.622,-0.06 0.584,-0.035 0.541,-0.017C0.498,0.001 0.451,0.01 0.4,0.01ZM0.4,-0.127C0.44,-0.127 0.476,-0.137 0.507,-0.156C0.538,-0.175 0.563,-0.202 0.581,-0.236C0.598,-0.27 0.607,-0.309 0.607,-0.352C0.607,-0.395 0.598,-0.434 0.581,-0.468C0.563,-0.501 0.538,-0.528 0.507,-0.548C0.476,-0.567 0.44,-0.577 0.4,-0.577C0.359,-0.577 0.323,-0.567 0.292,-0.548C0.261,-0.529 0.236,-0.502 0.219,-0.468C0.201,-0.434 0.192,-0.395 0.192,-0.352C0.192,-0.308 0.201,-0.269 0.219,-0.236C0.236,-0.202 0.261,-0.175 0.292,-0.156C0.323,-0.137 0.359,-0.127 0.4,-0.127Z" style="fill-rule:nonzero;"/>
            </g>
            <g transform="matrix(64,0,0,64,750.878,49.5648)">
                <path d="M0.092,-0L0.092,-0.7L0.387,-0.7C0.428,-0.7 0.466,-0.69 0.499,-0.671C0.532,-0.651 0.558,-0.624 0.578,-0.591C0.597,-0.557 0.607,-0.519 0.607,-0.477C0.607,-0.434 0.597,-0.395 0.578,-0.361C0.558,-0.326 0.532,-0.299 0.499,-0.279C0.466,-0.258 0.428,-0.248 0.387,-0.248L0.236,-0.248L0.236,-0L0.092,-0ZM0.235,-0.379L0.372,-0.379C0.397,-0.379 0.418,-0.388 0.435,-0.407C0.452,-0.425 0.46,-0.448 0.46,-0.475C0.46,-0.502 0.452,-0.525 0.435,-0.543C0.418,-0.56 0.397,-0.569 0.372,-0.569L0.235,-0.569L0.235,-0.379Z" style="fill-rule:nonzero;"/>
            </g>
            <g transform="matrix(64,0,0,64,792.478,49.5648)">
                <path d="M0.092,-0L0.092,-0.7L0.56,-0.7L0.56,-0.572L0.233,-0.572L0.233,-0.419L0.511,-0.419L0.511,-0.295L0.233,-0.295L0.233,-0.128L0.566,-0.128L0.566,-0L0.092,-0Z" style="fill-rule:nonzero;"/>
            </g>
            <g transform="matrix(64,0,0,64,832.926,49.5648)">
                <path d="M0.092,-0L0.092,-0.7L0.4,-0.7C0.443,-0.7 0.482,-0.69 0.517,-0.671C0.552,-0.652 0.579,-0.625 0.6,-0.592C0.621,-0.558 0.631,-0.52 0.631,-0.477C0.631,-0.432 0.619,-0.391 0.595,-0.355C0.571,-0.319 0.539,-0.292 0.5,-0.274L0.659,0.001L0.492,-0L0.349,-0.253L0.231,-0.253L0.231,-0L0.092,-0ZM0.231,-0.372L0.395,-0.372C0.423,-0.372 0.446,-0.382 0.463,-0.401C0.48,-0.42 0.488,-0.443 0.488,-0.472C0.488,-0.503 0.478,-0.527 0.457,-0.546C0.436,-0.565 0.409,-0.574 0.375,-0.574L0.231,-0.574L0.231,-0.372Z" style="fill-rule:nonzero;"/>
            </g>
        </g>
    </g>
</svg>
